<?xml version="1.0" standalone="no"?>
<!DOCTYPE svg PUBLIC "-//W3C//DTD SVG 20010904//EN"
 "http://www.w3.org/TR/2001/REC-SVG-20010904/DTD/svg10.dtd">
<svg version="1.0" xmlns="http://www.w3.org/2000/svg"
 width="512.000000pt" height="512.000000pt" viewBox="0 0 512.000000 512.000000"
 preserveAspectRatio="xMidYMid meet">

<g transform="translate(0.000000,512.000000) scale(0.100000,-0.100000)"
fill="#000000" stroke="none">
<path d="M1042 4750 l-232 -350 115 0 115 0 0 -640 0 -640 80 0 80 0 0 720 0
720 -40 0 c-22 0 -40 2 -40 5 0 10 153 235 160 235 7 0 160 -225 160 -235 0
-3 -18 -5 -40 -5 l-40 0 0 -720 0 -720 80 0 80 0 0 640 0 640 115 0 115 0
-232 350 c-128 192 -235 349 -238 349 -3 0 -110 -157 -238 -349z"/>
<path d="M3111 4969 c16 -40 29 -77 29 -84 0 -8 -22 -15 -57 -20 -127 -16
-282 -79 -436 -178 l-78 -50 123 -73 c68 -41 124 -77 125 -81 2 -5 -17 -35
-42 -68 -25 -33 -77 -122 -115 -197 l-71 -138 185 0 186 0 0 -67 c0 -65 -1
-68 -69 -172 -80 -124 -95 -165 -88 -236 9 -84 51 -150 129 -199 l26 -17 4
-222 3 -222 32 -67 c44 -93 100 -151 191 -196 l76 -37 168 -4 168 -3 0 -162 0
-162 -947 -72 c-522 -40 -954 -73 -960 -72 -23 0 -14 39 25 108 74 131 109
245 119 388 l6 90 -40 32 c-127 100 -336 158 -610 169 l-153 6 0 -79 0 -80
-68 -17 c-108 -28 -197 -98 -246 -194 l-16 -33 60 -121 c34 -67 60 -122 58
-123 -2 -1 -19 -14 -39 -28 -63 -47 -69 -71 -69 -290 0 -168 2 -198 18 -227
l19 -35 -142 -236 c-187 -312 -225 -428 -212 -640 24 -370 296 -686 658 -760
127 -27 311 -27 438 0 317 65 576 324 641 640 47 227 10 416 -126 644 -39 66
-71 122 -70 124 4 4 1048 -57 1053 -61 2 -3 -4 -42 -14 -88 -15 -74 -18 -156
-21 -681 l-3 -598 881 0 881 0 -4 848 c-3 757 -5 854 -20 910 -30 109 -77 219
-129 299 -59 91 -202 235 -276 278 l-52 30 0 157 0 156 148 103 c263 183 330
242 430 377 250 337 291 777 108 1157 -167 347 -487 580 -871 635 -38 5 -273
10 -522 10 l-452 0 30 -71z m834 -916 c85 -45 126 -114 133 -220 l5 -73 81 0
c57 0 93 -6 121 -19 103 -46 142 -168 87 -264 -9 -16 -79 -76 -154 -134 l-138
-104 0 -385 c0 -299 -3 -385 -12 -389 -7 -2 -56 -15 -108 -30 -52 -14 -119
-37 -147 -50 l-53 -24 0 140 0 139 80 0 80 0 0 79 0 80 -312 3 c-342 3 -343 4
-411 67 -26 23 -57 71 -57 86 0 3 27 5 60 5 220 0 400 184 400 410 l0 70 -242
0 -243 1 -20 32 c-11 18 -41 46 -67 62 -52 33 -74 71 -64 111 4 14 35 67 68
118 77 113 87 141 88 239 l0 78 393 -3 c380 -3 393 -4 432 -25z m-525 -782 c0
-5 -15 -29 -33 -52 -44 -58 -109 -90 -197 -97 l-70 -5 0 82 0 81 150 0 c85 0
150 -4 150 -9z m-2098 -486 c90 -7 243 -47 305 -79 l51 -25 -5 -43 c-7 -68
-42 -176 -79 -250 l-35 -69 -116 3 -116 3 -32 81 c-42 104 -74 229 -82 322
l-6 73 24 -5 c13 -3 54 -7 91 -11z m-247 -222 c10 -43 30 -114 46 -157 16 -44
29 -81 29 -83 0 -2 -31 -3 -70 -3 l-70 0 -59 119 -60 118 28 27 c28 27 90 55
122 56 13 0 21 -19 34 -77z m2953 -352 l-20 -80 -310 -177 -310 -177 81 -81
81 -82 -196 -122 c-108 -68 -198 -121 -201 -119 -6 7 47 167 79 237 134 297
407 547 717 655 104 37 102 38 79 -54z m276 -12 c89 -84 158 -182 199 -288 55
-142 56 -162 57 -948 l0 -723 -160 0 -160 0 0 560 0 560 -80 0 -80 0 0 -560 0
-560 -480 0 -480 0 0 458 0 457 345 215 344 215 -74 75 c-41 42 -75 78 -75 82
0 3 110 68 244 144 l244 139 22 85 c37 147 41 160 49 160 5 0 43 -32 85 -71z
m-3197 -55 c118 -56 120 -223 3 -281 -36 -19 -61 -23 -137 -23 l-93 0 0 160 0
160 96 0 c68 0 106 -5 131 -16z m413 -64 l0 -80 -80 0 -80 0 0 28 c-1 15 -9
51 -19 80 l-18 52 99 0 98 0 0 -80z m1816 -30 c-99 -104 -186 -232 -242 -354
-34 -75 -42 -86 -64 -85 -106 1 -1178 66 -1186 72 -25 15 -164 264 -164 293
l0 29 847 66 c467 37 859 67 872 68 19 1 9 -14 -63 -89z m-1589 -533 c135
-226 200 -345 217 -398 104 -311 -42 -659 -334 -802 -114 -56 -211 -77 -350
-77 -139 0 -236 21 -350 77 -295 144 -440 495 -332 807 19 55 75 159 171 319
l142 237 88 0 c49 0 110 7 139 15 57 17 140 78 161 118 l14 27 121 0 121 -1
192 -322z"/>
<path d="M3305 3895 c-16 -15 -25 -36 -25 -55 0 -19 9 -40 25 -55 15 -16 36
-25 55 -25 19 0 40 9 55 25 16 15 25 36 25 55 0 19 -9 40 -25 55 -15 16 -36
25 -55 25 -19 0 -40 -9 -55 -25z"/>
<path d="M1200 1440 l0 -80 -81 0 -81 0 4 -157 c4 -173 9 -192 70 -252 42 -42
75 -59 129 -67 96 -13 119 -37 119 -119 l0 -45 -45 0 c-84 0 -115 31 -115 115
l0 45 -80 0 -80 0 0 -56 c0 -31 5 -74 12 -96 14 -48 76 -121 118 -138 l30 -12
0 -89 0 -89 80 0 80 0 0 80 0 80 80 0 80 0 0 138 c0 75 -5 153 -10 172 -22 81
-107 154 -188 165 -98 13 -122 37 -122 120 l0 45 45 0 c84 0 115 -31 115 -115
l0 -45 80 0 80 0 0 56 c0 88 -18 133 -77 192 -28 28 -59 52 -67 52 -13 0 -16
15 -16 90 l0 90 -80 0 -80 0 0 -80z"/>
<path d="M242 4110 l-232 -350 115 0 115 0 0 -560 0 -560 80 0 80 0 0 640 0
640 -40 0 c-22 0 -40 2 -40 5 0 10 153 235 160 235 7 0 160 -225 160 -235 0
-3 -18 -5 -40 -5 l-40 0 0 -480 0 -480 80 0 80 0 0 400 0 400 115 0 115 0
-232 350 c-128 192 -235 349 -238 349 -3 0 -110 -157 -238 -349z"/>
<path d="M1842 3790 l-232 -350 115 0 115 0 0 -240 0 -240 80 0 80 0 0 320 0
320 -40 0 c-22 0 -40 2 -40 5 0 10 153 235 160 235 7 0 160 -225 160 -235 0
-3 -18 -5 -40 -5 l-40 0 0 -480 0 -480 80 0 80 0 0 400 0 400 115 0 115 0
-232 350 c-128 192 -235 349 -238 349 -3 0 -110 -157 -238 -349z"/>
</g>
</svg>
